<svg xmlns="http://www.w3.org/2000/svg" width="50" height="50" viewBox="1 1 50 50"><g data-name="Facebook"><g data-name="Ellipse 3"><path d="M26 1c13.807 0 25 11.193 25 25S39.807 51 26 51 1 39.807 1 26 12.193 1 26 1Z" fill="rgba(61, 100, 191, 1)" fill-rule="evenodd"/><path d="M26 1c13.807 0 25 11.193 25 25S39.807 51 26 51 1 39.807 1 26 12.193 1 26 1Z" stroke-linejoin="round" stroke-linecap="round" stroke="rgba(183, 183, 183, 1)" fill="transparent" transform="matrix(.98 0 0 .98 .52 .52)"/></g><path d="M23 39V27h-4v-5h4v-3s-.725-5.676 5-6c2.949-.08 4 0 4 0v4h-3s-2 .582-2 3v2h5l-1 5h-4v12h-4Z" fill="rgba(253, 253, 253, 1)" fill-rule="evenodd" data-name="F"/></g></svg>